<?xml version="1.0" standalone="no"?>
<!DOCTYPE svg PUBLIC "-//W3C//DTD SVG 20010904//EN"
 "http://www.w3.org/TR/2001/REC-SVG-20010904/DTD/svg10.dtd">
<svg version="1.0" xmlns="http://www.w3.org/2000/svg"
 width="300.000000pt" height="168.000000pt" viewBox="0 0 300.000000 168.000000"
 preserveAspectRatio="xMidYMid meet">
<metadata>
Created by potrace 1.16, written by Peter Selinger 2001-2019
</metadata>
<g transform="translate(0.000000,168.000000) scale(0.100000,-0.100000)"
fill="#000000" stroke="none">
<path d="M342 1238 c1 -244 3 -405 5 -358 28 784 24 716 41 712 8 -1 16 7 19
18 3 11 9 17 14 14 5 -3 9 1 9 10 0 8 3 21 6 30 5 13 -2 16 -45 16 l-51 0 2
-442z"/>
<path d="M752 1660 c8 -13 45 -14 281 -7 150 4 449 6 664 4 281 -3 395 -1 402
7 7 8 -173 11 -673 11 -605 0 -682 -2 -674 -15z"/>
<path d="M2185 1043 c-11 -3 -34 -16 -51 -28 -30 -23 -32 -29 -49 -154 -10
-72 -15 -146 -12 -166 l6 -36 -43 2 c-42 3 -43 3 -36 33 3 18 15 36 28 42 20
10 21 12 7 18 -26 9 -105 7 -105 -3 0 -5 10 -11 23 -13 17 -2 23 -11 25 -36 3
-33 1 -35 -51 -46 -55 -13 -39 -66 20 -66 36 0 103 -31 103 -47 0 -12 7 -14
31 -9 26 5 30 3 25 -10 -3 -9 -6 -33 -6 -55 0 -34 -3 -39 -27 -45 -16 -3 -54
-15 -85 -26 -53 -19 -58 -23 -58 -50 0 -16 4 -27 9 -24 5 4 12 0 15 -6 3 -7 4
2 3 21 l-4 33 39 -6 c23 -4 38 -2 38 4 0 5 13 10 30 10 29 0 30 0 23 -45 -5
-40 -4 -45 14 -45 11 0 23 3 27 7 4 4 54 6 112 4 99 -3 104 -2 104 17 0 12 -5
24 -11 27 -6 4 -8 13 -5 21 4 9 -2 14 -15 14 -11 0 -22 6 -25 14 -3 9 -33 19
-75 26 -69 12 -69 12 -68 43 1 18 -1 42 -5 54 -4 13 -2 24 5 29 9 5 10 2 6 -9
-4 -10 -2 -16 6 -14 7 1 11 -6 11 -15 -1 -14 5 -17 27 -15 15 1 28 -2 28 -7
-1 -5 5 -13 13 -17 9 -6 4 -9 -17 -10 -21 -1 -24 -3 -10 -6 11 -3 26 -10 33
-16 7 -5 15 -7 19 -4 3 4 12 -1 19 -11 21 -28 28 -6 30 89 1 50 5 93 8 96 3 3
0 13 -7 21 -10 13 -9 14 1 8 11 -7 13 4 10 50 -1 33 1 114 6 180 4 67 5 131 2
141 -11 35 -76 52 -141 36z"/>
<path d="M2745 977 c-55 -16 -65 -24 -65 -53 0 -15 -6 -24 -15 -24 -9 0 -18
-13 -22 -31 -4 -22 -8 -27 -14 -17 -7 10 -9 9 -9 -3 0 -20 -22 -30 -75 -36
-22 -2 -51 -5 -65 -7 -14 -2 -50 -5 -80 -6 -30 -1 -47 -4 -37 -7 12 -3 16 -10
13 -20 -5 -12 -1 -14 16 -9 13 3 56 6 96 6 70 0 99 15 45 23 -23 3 -21 4 9 6
32 1 39 -3 44 -24 3 -14 4 -32 0 -40 -5 -14 11 -15 127 -13 111 3 131 5 128
18 -4 16 -20 189 -21 228 0 25 -13 26 -75 9z"/>
<path d="M1350 770 c0 -5 10 -10 23 -10 12 -1 87 -1 167 -2 119 -1 131 -2 66
-7 -50 -4 -81 -11 -84 -18 -2 -7 3 -13 12 -13 9 0 16 5 16 10 0 16 111 12 195
-7 58 -12 79 -13 87 -5 9 9 6 12 -15 12 -18 0 -27 5 -27 16 0 14 10 16 65 12
64 -4 86 4 43 16 -40 10 -548 7 -548 -4z"/>
<path d="M2367 484 c1 -114 5 -210 10 -214 4 -4 83 -46 175 -92 l168 -85 140
-2 140 -2 0 300 0 301 -317 0 -318 0 2 -206z"/>
<path d="M620 517 l0 -54 -55 -18 c-52 -18 -76 -39 -37 -33 11 2 16 -3 15 -16
-1 -15 4 -17 30 -12 17 3 55 9 84 13 41 4 51 9 43 18 -15 18 5 22 60 14 25 -3
34 -7 20 -8 -20 -1 -22 -3 -10 -11 21 -14 57 -12 63 3 4 10 6 10 6 0 1 -7 5
-13 10 -13 6 0 9 8 9 18 -1 9 2 27 6 38 6 19 3 21 -19 16 -24 -4 -25 -2 -25
47 l0 51 -100 0 -100 0 0 -53z"/>
</g>
</svg>
